<svg xmlns="http://www.w3.org/2000/svg" xmlns:xlink="http://www.w3.org/1999/xlink" width="928.456" height="56.28" viewBox="0 0 928.456 56.28">
  <defs>
    <clipPath id="clip-path">
      <rect id="Rectangle_64" data-name="Rectangle 64" width="928.456" height="56.28" fill="none"/>
    </clipPath>
    <clipPath id="clip-path-2">
      <rect id="Rectangle_63" data-name="Rectangle 63" width="27.39" height="29.139" fill="none"/>
    </clipPath>
  </defs>
  <g id="Group_47" data-name="Group 47" clip-path="url(#clip-path)">
    <path id="Path_16" data-name="Path 16" d="M56.28,28.14A28.14,28.14,0,1,0,28.14,56.28,28.14,28.14,0,0,0,56.28,28.14" fill="#f7931a"/>
    <path id="Path_17" data-name="Path 17" d="M95.791,65.209c.518-3.526-2.157-5.434-5.849-6.7l1.2-4.791-2.9-.726-1.161,4.667c-.767-.187-1.556-.373-2.344-.539L85.9,52.432l-2.9-.726-1.182,4.771q-.965-.218-1.867-.436V56.02l-4.024-1-.767,3.111s2.116.488,2.116.519a1.537,1.537,0,0,1,1.348,1.7L77.248,65.81a1.36,1.36,0,0,1,.311.1,1.742,1.742,0,0,1-.311-.083L75.34,73.464a1.059,1.059,0,0,1-1.328.684c.021.041-2.115-.519-2.115-.519l-1.452,3.339,3.8.954c.705.187,1.39.353,2.074.539l-1.2,4.833,2.9.726,1.2-4.791c.788.207,1.576.415,2.323.6L80.359,84.6l2.9.726,1.2-4.833c4.978.933,8.711.56,10.267-3.941,1.265-3.609-.062-5.7-2.676-7.073a4.628,4.628,0,0,0,3.734-4.273m-6.658,9.333c-.892,3.609-6.99,1.66-8.96,1.162l1.6-6.409c1.97.5,8.317,1.473,7.363,5.247m.913-9.4c-.83,3.3-5.89,1.618-7.529,1.2l1.452-5.808c1.638.415,6.927,1.182,6.077,4.6" transform="translate(-55.01 -40.377)" fill="#fff"/>
    <path id="Path_18" data-name="Path 18" d="M2378.3,28.14a28.14,28.14,0,1,0-28.14,28.14,28.14,28.14,0,0,0,28.14-28.14" transform="translate(-1813.256)" fill="#8dc351"/>
    <path id="Path_19" data-name="Path 19" d="M2410.217,65.155a4.624,4.624,0,0,0,1.268-5.527c-1.21-3.35-4.468-3.766-8.317-3.135l-1.205-4.787-2.9.733,1.183,4.659c-.764.2-1.547.406-2.319.633l-1.193-4.677-2.9.733,1.214,4.759q-.952.264-1.849.5l-.01-.018-4.014,1.025.795,3.1s2.094-.571,2.108-.543a1.536,1.536,0,0,1,1.991.86l1.373,5.45a1.353,1.353,0,0,1,.323-.056,1.747,1.747,0,0,1-.313.074l1.927,7.623a1.059,1.059,0,0,1-.845,1.23c.038.027-2.108.543-2.108.543l.3,3.627,3.793-.954c.709-.169,1.391-.346,2.082-.505l1.225,4.824,2.9-.733-1.205-4.787c.792-.19,1.584-.38,2.33-.568L2407.063,84l2.9-.733-1.225-4.824c4.824-1.531,7.935-3.624,7.178-8.323-.592-3.776-2.751-4.993-5.7-4.964m-3.82-2.866c.828,3.3-4.422,4.209-6.061,4.617l-1.467-5.8c1.639-.41,6.659-2.233,7.528,1.182m-3.7,13.962-1.623-6.4c1.97-.493,8.02-2.634,8.964,1.14.92,3.6-5.371,4.765-7.341,5.258" transform="translate(-1865.693 -40.377)" fill="#fff"/>
    <path id="Path_20" data-name="Path 20" d="M388,28.14a28.14,28.14,0,1,0-28.14,28.14A28.14,28.14,0,0,0,388,28.14" transform="translate(-259.037)" fill="#627eea"/>
    <path id="Path_21" data-name="Path 21" d="M459.441,61.936l-.2.664V81.867l.2.2,8.944-5.287Z" transform="translate(-358.622 -48.366)" fill="#c0ccf7"/>
    <path id="Path_22" data-name="Path 22" d="M428.262,61.936l-8.944,14.84,8.944,5.287V61.936Z" transform="translate(-327.443 -48.366)" fill="#fff"/>
    <path id="Path_23" data-name="Path 23" d="M459.745,142.689l-.11.134v6.863l.11.322,8.949-12.6Z" transform="translate(-358.926 -107.299)" fill="#c0ccf7"/>
    <path id="Path_24" data-name="Path 24" d="M428.262,150.008v-7.319l-8.944-5.284Z" transform="translate(-327.443 -107.299)" fill="#fff"/>
    <path id="Path_25" data-name="Path 25" d="M460.137,120.463l8.943-5.286-8.943-4.065Z" transform="translate(-359.318 -86.767)" fill="#8198ee"/>
    <path id="Path_26" data-name="Path 26" d="M419.319,115.177l8.943,5.287v-9.352Z" transform="translate(-327.444 -86.766)" fill="#c0ccf7"/>
    <path id="Path_27" data-name="Path 27" d="M719.716,28.14a28.14,28.14,0,1,0-28.14,28.14,28.14,28.14,0,0,0,28.14-28.14" transform="translate(-518.073)" fill="#26a17b"/>
    <path id="Path_28" data-name="Path 28" d="M738.7,71.722V67.844h8.866V61.937H723.428v5.907H732.3v3.874c-7.207.331-12.625,1.758-12.625,3.468s5.421,3.137,12.625,3.47V91.076h6.411V78.655c7.194-.332,12.6-1.758,12.6-3.466s-5.408-3.134-12.6-3.466m0,5.881v0c-.181.011-1.11.067-3.18.067-1.654,0-2.819-.047-3.229-.068V77.6c-6.367-.282-11.119-1.391-11.119-2.717s4.753-2.434,11.119-2.716V76.5c.417.028,1.609.1,3.256.1,1.977,0,2.971-.082,3.154-.1V72.171c6.354.283,11.1,1.393,11.1,2.715s-4.743,2.432-11.1,2.715" transform="translate(-561.986 -48.366)" fill="#fff"/>
    <path id="Path_29" data-name="Path 29" d="M1051.434,28.14a28.14,28.14,0,1,0-28.14,28.14,28.14,28.14,0,0,0,28.14-28.14" transform="translate(-777.11)" fill="#0033ad"/>
    <path id="Path_30" data-name="Path 30" d="M1085.414,119.484a2.5,2.5,0,0,0,2.346,2.634h.136a2.49,2.49,0,1,0-2.489-2.633Z" transform="translate(-847.588 -91.472)" fill="#fff"/>
    <path id="Path_31" data-name="Path 31" d="M1040.037,124.958a.8.8,0,1,0,.758.849.8.8,0,0,0-.758-.849h0" transform="translate(-811.496 -97.578)" fill="#fff"/>
    <path id="Path_32" data-name="Path 32" d="M1080.535,56.465a.8.8,0,1,0-.005,0l.005,0" transform="translate(-842.867 -42.905)" fill="#fff"/>
    <path id="Path_33" data-name="Path 33" d="M1089.82,73.607a1.244,1.244,0,1,0-1.671-.551,1.243,1.243,0,0,0,1.671.551h0" transform="translate(-849.626 -55.641)" fill="#fff"/>
    <path id="Path_34" data-name="Path 34" d="M1055.8,89.123a1.024,1.024,0,1,0-.293-1.419h0a1.025,1.025,0,0,0,.294,1.418" transform="translate(-824.107 -68.127)" fill="#fff"/>
    <path id="Path_35" data-name="Path 35" d="M1059.673,122.888a1.244,1.244,0,1,0,1.172,1.313,1.243,1.243,0,0,0-1.172-1.313" transform="translate(-826.467 -95.961)" fill="#fff"/>
    <path id="Path_36" data-name="Path 36" d="M1056.061,160.661a1.024,1.024,0,1,0,1.377.453,1.024,1.024,0,0,0-1.377-.453h0" transform="translate(-824.232 -125.373)" fill="#fff"/>
    <path id="Path_37" data-name="Path 37" d="M1077.769,101.583a1.464,1.464,0,1,0-.422-2.027,1.464,1.464,0,0,0,.422,2.027l0,0" transform="translate(-841.106 -77.226)" fill="#fff"/>
    <path id="Path_38" data-name="Path 38" d="M1148.11,73.4a1.245,1.245,0,1,0-.362-1.724,1.245,1.245,0,0,0,.362,1.724l0,0" transform="translate(-896.111 -55.528)" fill="#fff"/>
    <path id="Path_39" data-name="Path 39" d="M1160.478,56.233a.805.805,0,1,0-.232-1.115h0a.805.805,0,0,0,.233,1.114" transform="translate(-905.926 -42.757)" fill="#fff"/>
    <path id="Path_40" data-name="Path 40" d="M1141.634,117.012a2.491,2.491,0,0,0-.286,4.973h.144a2.49,2.49,0,0,0,1.856-4.149,2.46,2.46,0,0,0-1.714-.824" transform="translate(-889.439 -91.371)" fill="#fff"/>
    <path id="Path_41" data-name="Path 41" d="M1099.042,97.521a2.491,2.491,0,1,0-.264-1.112,2.48,2.48,0,0,0,.264,1.112" transform="translate(-858.029 -73.337)" fill="#fff"/>
    <path id="Path_42" data-name="Path 42" d="M1183.795,88.9a1.025,1.025,0,1,0-1.377-.454,1.025,1.025,0,0,0,1.377.454" transform="translate(-923.258 -67.909)" fill="#fff"/>
    <path id="Path_43" data-name="Path 43" d="M1157.4,98.873a1.464,1.464,0,1,0,1.966.649,1.464,1.464,0,0,0-1.966-.649h0" transform="translate(-903.178 -77.087)" fill="#fff"/>
    <path id="Path_44" data-name="Path 44" d="M1119.706,52.494a1.025,1.025,0,1,0-.965-1.081h0a1.025,1.025,0,0,0,.965,1.08" transform="translate(-873.617 -39.393)" fill="#fff"/>
    <path id="Path_45" data-name="Path 45" d="M1118.175,78.792a1.464,1.464,0,1,0-1.38-1.546,1.464,1.464,0,0,0,1.38,1.546" transform="translate(-872.097 -59.244)" fill="#fff"/>
    <path id="Path_46" data-name="Path 46" d="M1079.33,147.549a1.464,1.464,0,1,0-1.966-.648h0a1.464,1.464,0,0,0,1.966.648" transform="translate(-841.184 -113.056)" fill="#fff"/>
    <path id="Path_47" data-name="Path 47" d="M1125.964,94.959a2.49,2.49,0,1,0,2.086-1.125,2.49,2.49,0,0,0-2.086,1.125" transform="translate(-878.941 -73.274)" fill="#fff"/>
    <path id="Path_48" data-name="Path 48" d="M1130.377,141.612a2.49,2.49,0,1,0-2.223,3.611,2.521,2.521,0,0,0,1.121-.272,2.491,2.491,0,0,0,1.1-3.339" transform="translate(-879.024 -109.514)" fill="#fff"/>
    <path id="Path_49" data-name="Path 49" d="M1158.953,144.841a1.464,1.464,0,1,0,.421,2.027,1.464,1.464,0,0,0-.421-2.027" transform="translate(-903.249 -112.918)" fill="#fff"/>
    <path id="Path_50" data-name="Path 50" d="M1179.937,123.945a1.243,1.243,0,1,0-1.313,1.172,1.243,1.243,0,0,0,1.313-1.172" transform="translate(-919.465 -95.762)" fill="#fff"/>
    <path id="Path_51" data-name="Path 51" d="M1201.481,124.579a.805.805,0,1,0,.758.85.805.805,0,0,0-.758-.85" transform="translate(-937.565 -97.282)" fill="#fff"/>
    <path id="Path_52" data-name="Path 52" d="M1184.06,160.438a1.024,1.024,0,1,0,.3,1.419,1.025,1.025,0,0,0-.3-1.419h0" transform="translate(-923.387 -125.154)" fill="#fff"/>
    <path id="Path_53" data-name="Path 53" d="M1080.943,194.886a.805.805,0,1,0,.231,1.116.805.805,0,0,0-.231-1.116h0" transform="translate(-843.128 -152.082)" fill="#fff"/>
    <path id="Path_54" data-name="Path 54" d="M1160.861,194.662a.805.805,0,1,0,1.082.357h0a.8.8,0,0,0-1.079-.358h0" transform="translate(-906.163 -151.943)" fill="#fff"/>
    <path id="Path_55" data-name="Path 55" d="M1103.444,144.135a2.49,2.49,0,1,0-2.084,1.125,2.49,2.49,0,0,0,2.084-1.125" transform="translate(-858.102 -109.544)" fill="#fff"/>
    <path id="Path_56" data-name="Path 56" d="M1090.173,174.594a1.244,1.244,0,1,0,.359,1.722,1.244,1.244,0,0,0-.359-1.722" transform="translate(-849.807 -136.181)" fill="#fff"/>
    <path id="Path_57" data-name="Path 57" d="M1119.67,197.065a1.025,1.025,0,1,0,.965,1.082,1.024,1.024,0,0,0-.965-1.082h0" transform="translate(-873.498 -153.886)" fill="#fff"/>
    <path id="Path_58" data-name="Path 58" d="M1118.044,167.639a1.464,1.464,0,1,0,1.372,1.55v-.006a1.463,1.463,0,0,0-1.373-1.544" transform="translate(-871.862 -130.906)" fill="#fff"/>
    <path id="Path_59" data-name="Path 59" d="M1148.478,174.38a1.245,1.245,0,1,0,1.673.547v0a1.242,1.242,0,0,0-1.67-.545h0" transform="translate(-896.307 -136.066)" fill="#fff"/>
    <path id="Path_60" data-name="Path 60" d="M1383.152,28.14a28.14,28.14,0,1,0-28.14,28.14,28.14,28.14,0,0,0,28.14-28.14" transform="translate(-1036.147)" fill="#c3a634"/>
    <path id="Path_61" data-name="Path 61" d="M1406.274,61.937H1397.9V74.908h-2.99v3.177h2.99v12.97h9.756s13.718,1.15,13.718-14.316c0-15.214-13.12-14.8-15.1-14.8m1.16,23.736H1403.4V78.085h6.056V74.908H1403.4V67.319h3.849c1.44,0,8.682.58,8.694,9.525s-7.468,8.829-8.505,8.829" transform="translate(-1089.277 -48.366)" fill="#fff"/>
    <path id="Path_62" data-name="Path 62" d="M1714.87,28.14a28.14,28.14,0,1,0-28.14,28.14,28.14,28.14,0,0,0,28.14-28.14" transform="translate(-1295.183)" fill="#e6007a"/>
    <path id="Path_63" data-name="Path 63" d="M1748.347,61.936a11.083,11.083,0,0,0-11.038,11.039,11.341,11.341,0,0,0,.582,3.586,1.519,1.519,0,1,0,2.88-.967,7.285,7.285,0,0,1-.429-2.814,7.963,7.963,0,1,1,8.442,8.188s-1.549.094-2.32.189a8.024,8.024,0,0,0-.844.168.1.1,0,0,1-.145,0h0a.1.1,0,0,1,0-.124l.24-1.308,1.455-6.545a1.513,1.513,0,1,0-2.959-.633s-3.461,16.02-3.461,16.166a1.455,1.455,0,0,0,1.051,1.768l.026.006h.08a1.454,1.454,0,0,0,1.772-1.044c0-.013.007-.026.009-.039a.358.358,0,0,1,0-.072c.043-.189.48-2.32.48-2.32a3.927,3.927,0,0,1,3.25-3.091c.334-.051,1.738-.145,1.738-.145a11.031,11.031,0,0,0-.808-22" transform="translate(-1356.654 -48.365)" fill="#fff"/>
    <path id="Path_64" data-name="Path 64" d="M1782.818,177.961a1.84,1.84,0,0,0-2.176,1.426c0,.009,0,.019-.006.028a1.832,1.832,0,0,0,1.4,2.181h.055a1.8,1.8,0,0,0,2.176-1.329c0-.007,0-.015.006-.022v-.1a1.907,1.907,0,0,0-1.455-2.183" transform="translate(-1390.455 -138.938)" fill="#fff"/>
    <path id="Path_65" data-name="Path 65" d="M2046.587,28.14a28.14,28.14,0,1,0-28.14,28.14,28.14,28.14,0,0,0,28.14-28.14" transform="translate(-1554.219)" fill="#ff007a"/>
    <path id="Path_66" data-name="Path 66" d="M2062.079,62.583c3.291,4.034,6.9,9.1,7.489,9.922l.067.094c.311.435.569.758.764,1,.434.545.562.707.3.855a1.246,1.246,0,0,1-.638.159,1.088,1.088,0,0,1-.716-.309c-.141-.135-1.1-1.549-2.417-3.606-1-1.574-1.845-2.88-1.868-2.9-.053-.051-.052-.049,1.766,3.236,1.141,2.063,1.922,3.587,1.922,3.684,0,.2-.054.3-.3.576a3.344,3.344,0,0,0-.715,2.025,6.372,6.372,0,0,1-1.7,3.458,6.809,6.809,0,0,0-.944,1.332,2.475,2.475,0,0,0-.294,1.2,3.78,3.78,0,0,0,.2,1.48,5.318,5.318,0,0,0,.71,1.42,3.307,3.307,0,0,1,.547,1.1c0,.126.023.126.561,0a5.808,5.808,0,0,0,2.919-1.442,1.371,1.371,0,0,0,.452-1.144,1.123,1.123,0,0,0-.1-.626,2.733,2.733,0,0,0-1.044-1.025,2.384,2.384,0,0,1-1.241-1.616,2.823,2.823,0,0,1,.457-1.8,5.489,5.489,0,0,0,.651-2.372c.05-.634.119-.885.3-1.085a1.12,1.12,0,0,1,.824-.345,2.782,2.782,0,0,0,1.64-.673,1.445,1.445,0,0,0,.511-1.1l.017-.353-.193-.227c-.7-.822-10.394-11.58-10.437-11.58-.009,0,.22.291.51.646" transform="translate(-1609.868 -48.366)" fill="#fff" fill-rule="evenodd"/>
    <path id="Path_67" data-name="Path 67" d="M2081.814,159.189a.628.628,0,0,0-.19-.822c-.25-.167-.637-.089-.637.13,0,.067.037.115.119.158.138.072.148.153.04.318s-.1.315.025.415a.431.431,0,0,0,.643-.2" transform="translate(-1625.031 -123.597)" fill="#fff" fill-rule="evenodd"/>
    <path id="Path_68" data-name="Path 68" d="M2105.478,91.878c-.311-.049-.324-.055-.178-.077a4.784,4.784,0,0,1,1.4.125A6.048,6.048,0,0,1,2109.773,94l.275.31.394-.064a8.229,8.229,0,0,1,4.756.6,6.128,6.128,0,0,1,1.077.635,1.688,1.688,0,0,1,.1.422,2.656,2.656,0,0,1-.16,1.642.434.434,0,0,0-.044.475.455.455,0,0,0,.406.26c.351,0,.728-.573.9-1.37l.07-.317.138.158a6.14,6.14,0,0,1,1.449,2.881l.026.219-.127-.2a2.44,2.44,0,0,0-.719-.763,4.5,4.5,0,0,0-2.46-.529,9.91,9.91,0,0,1-2.724-.415c-1.224-.4-1.84-.939-3.293-2.865a13.975,13.975,0,0,0-1.441-1.709,5.131,5.131,0,0,0-2.921-1.5" transform="translate(-1643.946 -71.675)" fill="#fff" fill-rule="evenodd"/>
    <path id="Path_69" data-name="Path 69" d="M2149.849,95.413a3.517,3.517,0,0,1,.264-1.3,1.38,1.38,0,0,1,.128-.248.868.868,0,0,1-.06.224,2.974,2.974,0,0,0-.053,1.326c.1.676.154.774.862,1.5.332.343.718.775.858.961l.254.337-.254-.241a10.878,10.878,0,0,0-1.185-.952c-.106-.055-.122-.054-.187.012s-.073.151-.081.582a3.279,3.279,0,0,1-.322,1.532c-.118.233-.137.183-.03-.08a2.117,2.117,0,0,0,.088-.932c0-1.3-.155-1.618-1.054-2.156-.228-.136-.6-.332-.834-.436a3.214,3.214,0,0,1-.408-.2,8.619,8.619,0,0,1,1.255.37c.525.2.612.23.676.206.043-.016.064-.142.084-.512" transform="translate(-1677.231 -73.301)" fill="#fff" fill-rule="evenodd"/>
    <path id="Path_70" data-name="Path 70" d="M2104.87,95.236a5.356,5.356,0,0,0,.938,3.234,2.987,2.987,0,0,0,1.81,1.262c.367.034.477-.083.312-.328a6.183,6.183,0,0,1-.589-1.088c-.046-.139-.148-.551-.225-.914-.264-1.241-.523-1.725-1.121-2.092a3.59,3.59,0,0,0-.954-.359l-.144-.027Z" transform="translate(-1643.672 -74.126)" fill="#fff" fill-rule="evenodd"/>
    <path id="Path_71" data-name="Path 71" d="M2139.3,125.011c-2.953-1.2-3.994-2.244-3.994-4a2.886,2.886,0,0,1,.02-.471,2.229,2.229,0,0,1,.254.19c.6.485,1.27.692,3.126.966a12.836,12.836,0,0,1,2.274.481,4.366,4.366,0,0,1,3.184,3.5,5.82,5.82,0,0,1-.093,1.874,3.628,3.628,0,0,1-.481,1.087c-.022.007-.044-.079-.05-.2a2.424,2.424,0,0,0-.87-1.694,11.9,11.9,0,0,0-3.37-1.733" transform="translate(-1667.449 -94.127)" fill="#fff" fill-rule="evenodd"/>
    <path id="Path_72" data-name="Path 72" d="M2121.479,139.544a5.343,5.343,0,0,1,.142.631,2.576,2.576,0,0,1-1.94,3.016c-.152.047-.752.166-1.332.263a7.638,7.638,0,0,0-2.227.594,3.491,3.491,0,0,0-.8.481.526.526,0,0,0,.189-.046,8.691,8.691,0,0,1,2.528-.417c.446-.023.953-.061,1.127-.083A3.535,3.535,0,0,0,2121.4,143a2.557,2.557,0,0,0,.624-1,1.887,1.887,0,0,0,.1-.808,1.919,1.919,0,0,0-.11-.835,2.542,2.542,0,0,0-.476-.875l-.14-.159Z" transform="translate(-1651.843 -108.792)" fill="#fff" fill-rule="evenodd"/>
    <path id="Path_73" data-name="Path 73" d="M2148.891,145.083a3.489,3.489,0,0,1-.267-2.442c.023-.082.06-.149.082-.149a.793.793,0,0,1,.206.112c.181.123.543.33,1.51.862a7.477,7.477,0,0,1,2.36,1.766,3.857,3.857,0,0,1,.785,1.815,6.246,6.246,0,0,1-.074,1.786,4.429,4.429,0,0,1-2.152,2.883,2.733,2.733,0,0,1-.314.157,1.212,1.212,0,0,1,.127-.327,2.971,2.971,0,0,0,.13-2.332,9.948,9.948,0,0,0-1.2-2.167,14.661,14.661,0,0,1-1.194-1.964" transform="translate(-1677.759 -111.271)" fill="#fff" fill-rule="evenodd"/>
    <path id="Path_74" data-name="Path 74" d="M2102.16,166.9a7.961,7.961,0,0,0-3.7,1.8l-.326.278.287.045a3.983,3.983,0,0,1,2.938,1.525,2.347,2.347,0,0,0,1.294.888,1.393,1.393,0,0,0,1.691-.813,1.513,1.513,0,0,0-.031-1.022,1.069,1.069,0,0,0-1.6-.343.555.555,0,0,0,.188.979c.1.021.1.017-.026-.039a.406.406,0,0,1-.276-.4.648.648,0,0,1,.988-.489.714.714,0,0,1,.489.732.909.909,0,0,1-1.025.916,1.5,1.5,0,0,1-.847-.448,1.141,1.141,0,0,1,.381-1.766,1.788,1.788,0,0,1,1.735.16c.612.4.872.774,1.4,1.988a8.968,8.968,0,0,0,.49.988,2.141,2.141,0,0,0,1.817,1.124,2.181,2.181,0,0,0,1.072-.263,2.344,2.344,0,0,0,.647-.437,1.016,1.016,0,0,0-.257.081,2.219,2.219,0,0,1-2.05-.055,2.028,2.028,0,0,1-.649-1.185c-.021-.093-.09-.5-.154-.915a4.408,4.408,0,0,0-.677-2.041,3.3,3.3,0,0,0-1.875-1.213,5.716,5.716,0,0,0-1.923-.075" transform="translate(-1638.419 -130.292)" fill="#fff" fill-rule="evenodd"/>
    <path id="Path_75" data-name="Path 75" d="M2108.459,127.122a1.348,1.348,0,0,1,.81-.892,1.574,1.574,0,0,1,.916.088,1.174,1.174,0,0,1,.67,1.079c-.082.44-.788.791-1.6.8-.415,0-.568-.053-.726-.267a1.284,1.284,0,0,1-.07-.8" transform="translate(-1646.458 -98.546)" fill="#fff" fill-rule="evenodd"/>
    <path id="Path_76" data-name="Path 76" d="M2112.324,127.076a.334.334,0,0,1,.143.505.788.788,0,0,1-.548.241c-.293,0-.613-.21-.613-.4,0-.387.613-.594,1.019-.344" transform="translate(-1648.706 -99.147)" fill="#fff" fill-rule="evenodd"/>
    <path id="Path_77" data-name="Path 77" d="M2710.023,28.14a28.14,28.14,0,1,0-28.14,28.14,28.14,28.14,0,0,0,28.14-28.14" transform="translate(-2072.293)" fill="#4e90ee"/>
    <g id="Group_46" data-name="Group 46" transform="translate(595.895 13.571)" opacity="0.9">
      <g id="Group_45" data-name="Group 45">
        <g id="Group_44" data-name="Group 44" clip-path="url(#clip-path-2)">
          <path id="Path_78" data-name="Path 78" d="M2735.259,62.374l9.543,4.881a4.156,4.156,0,0,1,2.258,3.715v2.258h-3.5V70.97a.742.742,0,0,0-.364-.583l-9.543-4.881a.8.8,0,0,0-.583,0l-9.543,4.881a.576.576,0,0,0-.365.583v2.258h-3.5V70.97a4.24,4.24,0,0,1,2.258-3.715l9.543-4.881a4.321,4.321,0,0,1,3.788,0m1.093,13.986a3,3,0,0,0-2.986-2.987,2.954,2.954,0,0,0-2.987,2.987,2.987,2.987,0,1,0,5.973,0m6.775,6.265a.577.577,0,0,0,.364-.583V79.784h3.5v2.258a4.24,4.24,0,0,1-2.258,3.715l-9.543,4.881a4.322,4.322,0,0,1-3.788,0l-9.47-4.881a4.156,4.156,0,0,1-2.258-3.715V79.784h3.5v2.258a.742.742,0,0,0,.365.583l8.086,4.079V82.625a6.491,6.491,0,0,1-4.736-6.265,6.557,6.557,0,1,1,8.378,6.265V86.7Z" transform="translate(-2719.67 -61.937)" fill="#fff" fill-rule="evenodd"/>
        </g>
      </g>
    </g>
    <path id="Path_79" data-name="Path 79" d="M4036.895,28.14a28.14,28.14,0,1,0-28.141,28.14,28.14,28.14,0,0,0,28.141-28.14" transform="translate(-3108.439)" fill="#f9ae18"/>
    <path id="Path_80" data-name="Path 80" d="M4065.443,79.544c-1.536-3.285-4.865-5.507-9.353-5.507h-7.239v5.507ZM4048.852,85.5h17.431a11.018,11.018,0,0,0,.1-1.5v-.071a10.98,10.98,0,0,0-.1-1.473h-17.435Zm0,8.309V88.4h16.57c-1.545,3.24-4.864,5.4-9.332,5.4Zm7.239-22.37h-10.048v8.108h-3.492v2.9h3.492V85.5h-3.492v2.9h3.492v8.01h10.048c6.043,0,10.641-3.271,12.409-8.01h3.19V85.5h-2.49a13.382,13.382,0,0,0,.092-1.576v-.071a13.38,13.38,0,0,0-.073-1.4h2.471v-2.9h-3.13c-1.723-4.806-6.356-8.108-12.469-8.108" transform="translate(-3156.805 -55.784)" fill="#fff" fill-rule="evenodd"/>
    <path id="Path_81" data-name="Path 81" d="M3373.459,28.14a28.14,28.14,0,1,0-28.14,28.14,28.14,28.14,0,0,0,28.14-28.14" transform="translate(-2590.365)" fill="#8247e5"/>
    <path id="Path_82" data-name="Path 82" d="M3401.178,77.758a1.938,1.938,0,0,0-1.826,0l-4.261,2.511-2.891,1.6-4.185,2.511a1.938,1.938,0,0,1-1.826,0l-3.271-1.978a1.855,1.855,0,0,1-.913-1.6V77a1.877,1.877,0,0,1,.913-1.6l3.271-1.9a1.938,1.938,0,0,1,1.826,0l3.271,1.978a1.855,1.855,0,0,1,.913,1.6v2.511l2.891-1.674V75.324a1.876,1.876,0,0,0-.913-1.6l-6.086-3.576a1.938,1.938,0,0,0-1.826,0l-6.238,3.652a1.674,1.674,0,0,0-.913,1.522v7.151a1.877,1.877,0,0,0,.913,1.6l6.162,3.576a1.938,1.938,0,0,0,1.826,0l4.185-2.434,2.891-1.674,4.184-2.434a1.938,1.938,0,0,1,1.826,0l3.272,1.9a1.855,1.855,0,0,1,.913,1.6v3.8a1.877,1.877,0,0,1-.913,1.6l-3.2,1.9a1.938,1.938,0,0,1-1.826,0l-3.272-1.9a1.855,1.855,0,0,1-.913-1.6V85.975l-2.891,1.674v2.511a1.877,1.877,0,0,0,.913,1.6l6.163,3.576a1.938,1.938,0,0,0,1.826,0l6.163-3.576a1.854,1.854,0,0,0,.913-1.6V82.932a1.877,1.877,0,0,0-.913-1.6Z" transform="translate(-2638.732 -54.602)" fill="#fff"/>
    <path id="Path_83" data-name="Path 83" d="M3705.177,28.14a28.14,28.14,0,1,0-28.14,28.14,28.14,28.14,0,0,0,28.14-28.14" transform="translate(-2849.402)" fill="#a5a8a9"/>
    <path id="Path_84" data-name="Path 84" d="M3728.326,85.347l1.893-7.127,4.481-1.637,1.115-4.188-.038-.1-4.411,1.612,3.178-11.966h-9.013l-4.156,15.616-3.47,1.268-1.146,4.318,3.467-1.267-2.449,9.2h23.986l1.538-5.728Z" transform="translate(-2902.395 -48.366)" fill="#fff"/>
    <path id="Path_85" data-name="Path 85" d="M3041.741,28.14a28.14,28.14,0,1,0-28.14,28.14,28.14,28.14,0,0,0,28.14-28.14" transform="translate(-2331.33)" fill="#5546ff"/>
    <path id="Path_86" data-name="Path 86" d="M3075.268,91.076,3069.3,81.71h8.568V78.171h-28.1V81.71h8.568l-5.967,9.366h4.44l7.007-11,7.007,11Zm2.6-16.338V71.2h-8.395l5.9-9.262H3070.9l-7.077,11.17-7.077-11.17h-4.474l5.9,9.262h-8.395v3.573Z" transform="translate(-2381.549 -48.366)" fill="#fff"/>
  </g>
</svg>
